<svg xmlns="http://www.w3.org/2000/svg" width="30" height="30" viewBox="0 0 30 30"><g><g><path fill="#fff" d="M25.631 4.36A14.743 14.743 0 0 1 30 14.874c-.004 8.2-6.705 14.87-14.936 14.87h-.008c-2.5-.004-4.955-.63-7.137-1.809L0 30l2.12-7.702a14.795 14.795 0 0 1-1.994-7.432C.13 6.667 6.83 0 15.056 0 19.05 0 22.8 1.556 25.65 4.311M15.084 27.19c6.844 0 12.414-5.552 12.418-12.357 0-3.3-1.292-6.413-3.636-8.737a12.332 12.332 0 0 0-8.776-3.638c-6.859 0-12.428 5.55-12.428 12.357 0 2.336.658 4.605 1.895 6.575l.3.468L3.6 26.414l4.687-1.219.45.268a12.504 12.504 0 0 0 6.32 1.724h.02m6.807-9.303c.375.168.62.262.712.431.094.169.094.9-.225 1.781-.311.881-1.802 1.669-2.52 1.783-.644.092-1.457.132-2.35-.152-.542-.186-1.237-.41-2.13-.786-3.744-1.612-6.189-5.362-6.375-5.606-.186-.263-1.524-2.025-1.524-3.844s.965-2.719 1.307-3.094a1.41 1.41 0 0 1 .996-.448c.25 0 .499 0 .714.018.231 0 .54-.092.84.638.312.732 1.058 2.57 1.152 2.757.093.187.156.393.031.655-.128.244-.188.394-.37.62-.188.223-.395.485-.565.654-.186.188-.38.394-.162.769.22.375.965 1.594 2.075 2.587 1.425 1.275 2.629 1.67 3.004 1.857.371.168.588.15.807-.094.216-.248.934-1.084 1.18-1.453.25-.375.5-.313.841-.187.342.124 2.174 1.02 2.55 1.207"/></g></g></svg>