<svg xmlns="http://www.w3.org/2000/svg" width="20" height="20" viewBox="0 0 20 20">
    <g fill="none" fill-rule="nonzero">
        <path d="M-2-2h24v24H-2z"/>
        <path fill="#FFF" d="M19.7 12.422c-1.335 5.36-6.762 8.619-12.12 7.282C2.224 18.378-1.038 12.94.3 7.589 1.634 2.226 7.062-1.036 12.417.3A10.001 10.001 0 0 1 19.7 12.424v-.002zm-5.292-3.844c.2-1.326-.812-2.042-2.2-2.526l.45-1.794-1.097-.275-.437 1.756c-.288-.073-.588-.14-.887-.209l.438-1.772-1.1-.275-.45 1.804c-.237-.056-.47-.11-.7-.167l-1.513-.375-.291 1.173s.812.188.796.197c.445.113.525.405.512.638L6.7 11.687c-.063.139-.201.339-.513.262.013.017-.8-.2-.8-.2l-.55 1.259 1.425.355.775.201-.45 1.826 1.1.272.45-1.808c.3.083.588.158.876.227l-.425 1.795 1.1.275.454-1.825c1.867.356 3.276.214 3.867-1.479.476-1.364-.025-2.15-1.014-2.663.712-.161 1.25-.634 1.4-1.609h.009l.005.003zm-2.51 3.517c-.336 1.367-2.63.625-3.375.442l.6-2.417c.747.191 3.132.558 2.776 1.975zm.343-3.534c-.309 1.242-2.22.613-2.838.458l.545-2.2c.62.15 2.614.437 2.292 1.737v.005z"/>
    </g>
</svg>
