<svg xmlns="http://www.w3.org/2000/svg" width="20" height="20" viewBox="0 0 20 20">
    <g fill="none" fill-rule="nonzero">
        <path d="M-2-2h24v24H-2z"/>
        <path fill="#FFF" d="M10 20C4.487 20 0 15.512 0 10 0 4.487 4.487 0 10 0c5.512 0 10 4.487 10 10 0 5.512-4.488 10-10 10zm8.433-8.632c-.291-.091-2.641-.794-5.32-.365 1.117 3.07 1.573 5.57 1.66 6.09a8.567 8.567 0 0 0 3.663-5.725h-.003zm-5.095 6.507c-.128-.75-.625-3.36-1.825-6.475l-.056.017c-4.825 1.679-6.55 5.02-6.7 5.333A8.468 8.468 0 0 0 10 18.555a8.479 8.479 0 0 0 3.333-.678l.005-.002zm-9.684-2.15c.194-.333 2.538-4.213 6.944-5.637.112-.038.224-.07.337-.1-.217-.488-.45-.973-.693-1.45-4.267 1.274-8.404 1.22-8.779 1.212l-.003.26c0 2.194.832 4.197 2.195 5.713v.002zM1.638 8.262c.383.007 3.902.022 7.897-1.04a54.561 54.561 0 0 0-3.167-4.94 8.563 8.563 0 0 0-4.73 5.976v.005zM8 1.71a45.577 45.577 0 0 1 3.185 5c3.037-1.138 4.325-2.867 4.478-3.085A8.491 8.491 0 0 0 10 1.47a8.56 8.56 0 0 0-2 .238v.002zm8.613 2.902C16.43 4.854 15 6.69 11.843 7.98c.2.408.391.821.566 1.238.067.15.125.3.183.442 2.842-.358 5.667.217 5.95.275a8.453 8.453 0 0 0-1.925-5.316l-.005-.006z"/>
    </g>
</svg>
