<svg xmlns="http://www.w3.org/2000/svg" width="18" height="18" viewBox="0 0 18 18">
    <g fill="none" fill-rule="nonzero">
        <path d="M-3-3h24v24H-3z"/>
        <path fill="#FFF" d="M17.007 0H.993A.993.993 0 0 0 0 .993v16.014c0 .549.445.993.993.993h8.62v-6.97H7.268V8.314h2.346V6.307c0-2.324 1.421-3.588 3.495-3.588.994 0 1.848.073 2.097.105v2.43h-1.441c-1.125 0-1.344.541-1.344 1.329v1.733h2.688l-.349 2.723H12.42V18h4.586c.55 0 .994-.444.994-.993V.993A.993.993 0 0 0 17.007 0"/>
    </g>
</svg>
