<svg xmlns="http://www.w3.org/2000/svg" width="18" height="16" viewBox="0 0 18 16">
    <g fill="none" fill-rule="nonzero">
        <path d="M-3-4h24v24H-3z"/>
        <path fill="#FFF" d="M6 14.82c0 .38-.204.609-.494.609a.76.76 0 0 1-.336-.09L.499 12.975C.224 12.835 0 12.467 0 12.157V.562C0 .257.162.076.395.076c.082 0 .174.022.27.07L.829.23H.83l5.148 2.607c.009.005.015.013.022.02v11.963zM11.394.806l.315-.517a.619.619 0 0 1 .79-.228l5.429 2.749c.002 0 .002.002.002.002l.005.001c.003.002.003.007.006.009.027.021.039.058.02.088l-5.407 8.9-.552.907-3.583-7.016L11.394.807zm-4.537 9.31v-5.59l3.849 7.54-3.462-1.753-.387-.197zM18 14.819c0 .358-.213.563-.526.563-.14 0-.301-.04-.47-.126l-.775-.393-3.462-1.753L18 4.498V14.82z"/>
    </g>
</svg>
