<svg xmlns="http://www.w3.org/2000/svg" width="18" height="15" viewBox="0 0 18 15">
    <g fill="none" fill-rule="nonzero">
        <path d="M-2-5h23.986v23.986H-2z"/>
        <path fill="#FFF" d="M16.887.295L.847 6.545a.585.585 0 0 0 .047 1.106l4.075 1.204 1.522 4.826a.7.7 0 0 0 1.167.28l2.108-2.152 4.134 3.035a.863.863 0 0 0 1.355-.519l2.739-13.093a.825.825 0 0 0-1.107-.937zM14.876 3.2L7.426 9.79a.4.4 0 0 0-.133.255l-.287 2.55c-.01.083-.126.094-.15.014l-1.18-3.803a.4.4 0 0 1 .17-.459l8.798-5.456c.203-.126.41.153.232.31z"/>
    </g>
</svg>
