<svg xmlns="http://www.w3.org/2000/svg" width="18" height="15" viewBox="0 0 18 15">
    <g fill="none" fill-rule="nonzero">
        <path d="M-3-5h24v24H-3z"/>
        <path fill="#FFF" d="M17.965 1.742a7.5 7.5 0 0 1-2.119.581A3.718 3.718 0 0 0 17.468.281a7.622 7.622 0 0 1-2.345.888A3.69 3.69 0 0 0 8.835 4.53 10.45 10.45 0 0 1 1.23.687c-.32.542-.5 1.17-.5 1.856a3.69 3.69 0 0 0 1.641 3.072 3.678 3.678 0 0 1-1.67-.462v.046c0 1.789 1.27 3.28 2.959 3.62A3.747 3.747 0 0 1 2 8.882a3.702 3.702 0 0 0 3.454 2.563 7.4 7.4 0 0 1-4.577 1.578c-.292 0-.584-.017-.877-.05a10.496 10.496 0 0 0 5.668 1.657c6.79 0 10.498-5.622 10.498-10.49 0-.156 0-.314-.01-.472A7.452 7.452 0 0 0 18 1.758l-.035-.016z"/>
    </g>
</svg>
