<?xml version="1.0" encoding="UTF-8"?>
<!-- Generator: Adobe Illustrator 17.0.0, SVG Export Plug-In . SVG Version: 6.00 Build 0)  -->
<!DOCTYPE svg PUBLIC "-//W3C//DTD SVG 1.1//EN" "http://www.w3.org/Graphics/SVG/1.1/DTD/svg11.dtd">
<svg version="1.1" id="Слой_1" xmlns="http://www.w3.org/2000/svg" xmlns:xlink="http://www.w3.org/1999/xlink" x="0px" y="0px" width="347px" height="103.5px" viewBox="197.5 341 347 103.5" enable-background="new 197.5 341 347 103.5" xml:space="preserve">
<path id="Rectangle_1_copy_2" fill="#009FE2" d="M81.404,348.783h62.069c14.011,0,25.36,11.349,25.36,25.36l0,0v62.209  c0,14.011-11.349,25.36-25.36,25.36l0,0H81.404c-14.011,0-25.36-11.349-25.36-25.36v-62.209  C56.044,360.272,67.393,348.783,81.404,348.783z M136.607,366.016H88.409c-8.126,0-14.712,6.585-14.712,14.712l0,0v35.868  c7.426-10.088,30.264-28.162,38.53-29.283c9.668-1.401,35.168,17.934,39.091,32.646v-39.231  C151.319,372.602,144.734,366.016,136.607,366.016L136.607,366.016L136.607,366.016z M138.288,395.44  c-0.14,0.841-0.981,0.981-1.821,0.56c-0.841-0.56-8.407-5.184-9.247-5.745c-0.841-0.56-1.541-1.681-0.42-2.522  c1.121-0.841,6.725-1.541,9.527,0.56C139.269,390.255,138.429,394.739,138.288,395.44L138.288,395.44z M113.769,407.209  c-5.604-0.841-33.907,20.876-24.94,24.379s40.632,6.725,46.937,4.483C151.459,429.486,119.514,408.19,113.769,407.209z   M319.451,383.11c-4.063,0-7.986,0.981-11.489,2.942l-0.28,0.14l4.203,9.387l0.42-0.14c2.242-1.261,4.624-1.821,7.146-1.821  c8.547,0,15.412,7.286,15.412,16.253c0,8.967-7.005,16.253-15.412,16.253c-8.266,0-15.132-6.865-15.412-15.552l-0.14-59.126v-0.42  h-9.668v58.846c0,14.712,11.349,26.621,25.36,26.621c10.088,0,19.195-6.305,23.258-15.973c1.401-3.363,2.102-7.005,2.102-10.648  c0.14-6.305-2.102-12.47-6.165-17.374C334.022,386.613,326.876,383.25,319.451,383.11z M274.615,411.973c0,0.42,0,0.841-0.14,1.401  v0.42c0,0.42-0.14,0.841-0.14,1.121l-0.14,0.42c-1.541,7.146-6.025,11.489-13.31,11.629c-7.286-0.14-11.769-4.484-13.31-11.629  c0-0.14-0.28-1.121-0.28-1.541c0-0.14-0.14-1.261-0.14-1.681V383.25h-9.668v27.602l0,0v0.981c0,0.28,0,0.42,0,0.701v0.42  c0,0.28,0,0.701,0.14,1.121c1.401,13.451,10.368,22.558,23.258,22.558h0.14c12.89,0,21.717-9.107,23.258-22.558  c0-0.28,0-0.701,0.14-0.981v-0.14c0-0.14,0-0.14,0-0.28c0-0.28,0-0.42,0-0.701v-0.14c0-0.14,0-0.28,0-0.42v-0.14v-0.14V383.11  h-9.808V411.973z M227.679,383.11c-13.871,0-25.22,11.909-25.22,26.621v26.201h9.668V409.03c0.42-8.687,7.146-15.552,15.412-15.552  h0.56v-9.948v-0.42H227.679L227.679,383.11z M461.382,383.25c-7.706,0-14.431,3.503-19.055,9.107  c-6.445,7.846-7.986,18.495-4.063,27.742c3.923,9.247,12.75,15.832,23.118,15.832c6.865,0,13.31-2.942,17.934-7.846l-6.445-6.865  c-2.942,3.363-7.146,5.184-11.489,5.184c-7.286,0-13.451-5.184-15.272-12.19h40.071c0.28-1.541,0.42-3.082,0.42-4.624  c0.14-6.305-2.102-12.47-6.165-17.234C475.673,386.753,468.808,383.25,461.382,383.25L461.382,383.25z M446.11,404.967  c1.821-6.865,7.986-12.19,15.272-12.19c7.286,0,13.31,5.184,15.272,12.19H446.11z M512.942,406.788l19.896-24.239h-10.788  l-20.036,23.959v-55.343h-8.827v84.766h8.827v-16.673l4.904-6.025l17.093,22.838h10.228L512.942,406.788z M417.948,370.08h-8.827  v45.115c0,12.19,11.069,20.876,20.596,20.876v-9.527c-6.165,0-11.769-5.885-11.769-13.871v-19.896h11.769v-9.247h-11.769  L417.948,370.08L417.948,370.08z M376.335,383.39c-7.706,0-14.431,3.503-19.055,9.107c-6.445,7.846-7.986,18.495-4.063,27.742  c3.923,9.247,12.75,15.832,23.118,15.832c6.865,0,13.31-2.942,17.934-7.846l-6.445-6.865c-2.942,3.363-7.146,5.184-11.489,5.184  c-7.286,0-13.451-5.184-15.272-12.19h40.071c0.28-1.541,0.42-3.082,0.42-4.624c0.14-6.305-2.102-12.47-6.165-17.234  C390.766,386.753,383.761,383.39,376.335,383.39z M361.063,405.107c1.821-6.865,8.126-12.19,15.272-12.19  c7.146,0,13.31,5.184,15.272,12.19H361.063z"/>
</svg>