<svg xmlns="http://www.w3.org/2000/svg" xmlns:xlink="http://www.w3.org/1999/xlink" width="270" height="270" viewBox="0 0 90 90"><defs><path id="fbwza" d="M851.428 2165.026l-3-9a1.5 1.5 0 0 0-2.1-.868l-9 4.5a1.5 1.5 0 0 0 1.341 2.685l4.902-2.451c-12.9 23.592-36.426 38.608-61.07 38.608v3c26.066 0 50.906-16.026 64.213-41.115l1.864 5.589a1.502 1.502 0 0 0 2.85-.948z"/><path id="fbwzb" d="M859 2216.5h-84V2152h84zm-57.738 9l1.847-6h27.783l1.846 6zM773.5 2149a1.5 1.5 0 0 0-1.5 1.5v67.5a1.5 1.5 0 0 0 1.5 1.5h26.47l-5.4 17.559a1.5 1.5 0 1 0 2.867.882l2.903-9.441h33.32l2.906 9.441a1.5 1.5 0 1 0 2.868-.882l-5.403-17.559h26.47a1.5 1.5 0 0 0 1.5-1.5v-67.5a1.5 1.5 0 0 0-1.5-1.5z"/><path id="fbwzc" d="M788.5 2210.5h-3v-3h3zm1.5-6h-6a1.5 1.5 0 0 0-1.5 1.5v6a1.5 1.5 0 0 0 1.5 1.5h6a1.5 1.5 0 0 0 1.5-1.5v-6a1.5 1.5 0 0 0-1.5-1.5z"/><path id="fbwzd" d="M803.5 2210.5h-3v-6h3zm1.5-9h-6a1.5 1.5 0 0 0-1.5 1.5v9a1.5 1.5 0 0 0 1.5 1.5h6a1.5 1.5 0 0 0 1.5-1.5v-9a1.5 1.5 0 0 0-1.5-1.5z"/><path id="fbwze" d="M818.5 2210.5h-3v-12h3zm1.5-15h-6a1.5 1.5 0 0 0-1.5 1.5v15a1.5 1.5 0 0 0 1.5 1.5h6a1.5 1.5 0 0 0 1.5-1.5v-15a1.5 1.5 0 0 0-1.5-1.5z"/><path id="fbwzf" d="M833.5 2210.5h-3v-21h3zm1.5-24h-6a1.5 1.5 0 0 0-1.5 1.5v24a1.5 1.5 0 0 0 1.5 1.5h6a1.5 1.5 0 0 0 1.5-1.5v-24a1.5 1.5 0 0 0-1.5-1.5z"/><path id="fbwzg" d="M848.5 2210.5h-3V2173h3zm1.5-40.5h-6a1.5 1.5 0 0 0-1.5 1.5v40.5a1.5 1.5 0 0 0 1.5 1.5h6a1.5 1.5 0 0 0 1.5-1.5v-40.5a1.5 1.5 0 0 0-1.5-1.5z"/></defs><g><g transform="translate(-772 -2149)"><g><g><g><use fill="#ff636d" xlink:href="#fbwza"/></g></g></g><g><g><g><use fill="#727272" xlink:href="#fbwzb"/></g></g></g><g><g><g><use fill="#727272" xlink:href="#fbwzc"/></g></g></g><g><g><g><use fill="#727272" xlink:href="#fbwzd"/></g></g></g><g><g><g><use fill="#727272" xlink:href="#fbwze"/></g></g></g><g><g><g><use fill="#727272" xlink:href="#fbwzf"/></g></g></g><g><g><g><use fill="#727272" xlink:href="#fbwzg"/></g></g></g></g></g></svg>