<svg xmlns="http://www.w3.org/2000/svg" xmlns:xlink="http://www.w3.org/1999/xlink" width="90" height="90" viewBox="0 0 90 90"><defs><path id="pil4a" d="M1285.495 1412.119c-4.356-8.005-14.375-10.963-22.38-6.608a16.5 16.5 0 0 0-8.553 13.079l-2.021-1.652a1.5 1.5 0 1 0-1.897 2.322l4.186 3.425a1.989 1.989 0 0 0 2.328-.24l4.692-2.828a1.5 1.5 0 1 0-1.547-2.57l-2.736 1.65c.725-7.42 7.328-12.848 14.749-12.123a13.5 13.5 0 0 1 10.541 6.976 1.5 1.5 0 0 0 2.637-1.431z"/><path id="pil4b" d="M1291.425 1420.795a1.505 1.505 0 0 0-.069-.056l-4.186-3.424a1.986 1.986 0 0 0-2.328.24l-4.692 2.828a1.5 1.5 0 0 0 1.546 2.57l2.736-1.65c-.727 7.42-7.332 12.845-14.753 12.117a13.5 13.5 0 0 1-10.529-6.962 1.5 1.5 0 1 0-2.637 1.43c4.362 8.001 14.384 10.951 22.385 6.589a16.5 16.5 0 0 0 8.54-13.067l2.021 1.652a1.5 1.5 0 1 0 1.966-2.267z"/><path id="pil4c" d="M1250 1439.767c-.502.667-4.034 2.133-10.5 2.133s-9.998-1.466-10.5-2.133v-3.59a29.783 29.783 0 0 0 10.5 1.673c3.572.077 7.129-.49 10.5-1.672zm0 7.049c-.502.667-4.034 2.134-10.5 2.134s-9.998-1.467-10.5-2.134v-3.589a29.748 29.748 0 0 0 10.5 1.673 29.747 29.747 0 0 0 10.5-1.673zm0 7.051c-.502.666-4.034 2.133-10.5 2.133s-9.998-1.467-10.5-2.133v-3.59a29.783 29.783 0 0 0 10.5 1.673c3.572.077 7.129-.49 10.5-1.672zm-10.5-23.067c6.135 0 9.627 1.32 10.4 2.025-.773.705-4.265 2.025-10.4 2.025-6.135 0-9.627-1.32-10.4-2.025.773-.705 4.265-2.025 10.4-2.025zm0-3c-5.014 0-13.5 1.059-13.5 5.025v21.15c0 3.966 8.486 5.025 13.5 5.025 5.014 0 13.5-1.059 13.5-5.025v-21.15c0-3.966-8.486-5.025-13.5-5.025z"/><path id="pil4d" d="M1313 1439.767c-.502.667-4.034 2.133-10.5 2.133s-9.998-1.466-10.5-2.133v-3.59a29.783 29.783 0 0 0 10.5 1.673c3.572.077 7.129-.49 10.5-1.672zm0 7.049c-.502.667-4.034 2.134-10.5 2.134s-9.998-1.467-10.5-2.134v-3.589a29.748 29.748 0 0 0 10.5 1.673 29.747 29.747 0 0 0 10.5-1.673zm0 7.051c-.502.666-4.034 2.133-10.5 2.133s-9.998-1.467-10.5-2.133v-3.59a29.783 29.783 0 0 0 10.5 1.673c3.572.077 7.129-.49 10.5-1.672zm-10.5-23.067c6.135 0 9.627 1.32 10.4 2.025-.773.705-4.265 2.025-10.4 2.025-6.135 0-9.627-1.32-10.4-2.025.773-.705 4.265-2.025 10.4-2.025zm0-3c-5.014 0-13.5 1.059-13.5 5.025v21.15c0 3.966 8.486 5.025 13.5 5.025 5.014 0 13.5-1.059 13.5-5.025v-21.15c0-3.966-8.486-5.025-13.5-5.025z"/><path id="pil4e" d="M1271 1383.418c-6.66 0-10.179-1.577-10.5-2.1v-3.807a29.368 29.368 0 0 0 10.5 1.698 29.325 29.325 0 0 0 10.512-1.702l.013 3.676c-.346.658-3.865 2.235-10.525 2.235zm0 7.21c-6.66 0-10.179-1.577-10.5-2.1v-3.808a29.334 29.334 0 0 0 10.5 1.698 29.325 29.325 0 0 0 10.512-1.702l.013 3.676c-.346.658-3.865 2.236-10.525 2.236zm0 7.21c-6.66 0-10.179-1.578-10.5-2.1v-3.809a29.339 29.339 0 0 0 10.5 1.7 29.297 29.297 0 0 0 10.512-1.704l.013 3.676c-.346.658-3.865 2.236-10.525 2.236zm0-25.838c6.252 0 9.735 1.39 10.425 2.1-.69.716-4.175 2.1-10.425 2.1-6.25 0-9.735-1.389-10.425-2.1.69-.71 4.173-2.1 10.425-2.1zm0-3c-5.014 0-13.5 1.075-13.5 5.1v21.633c0 4.029 8.486 5.1 13.5 5.1 5.014 0 13.5-1.071 13.5-5.1V1374.1c0-4.024-8.486-5.1-13.5-5.1z"/></defs><g><g transform="translate(-1226 -1369)"><g><g><g><use fill="#ff636d" xlink:href="#pil4a"/></g></g></g><g><g><g><use fill="#ff636d" xlink:href="#pil4b"/></g></g></g><g><g><g><use fill="#727272" xlink:href="#pil4c"/></g></g></g><g><g><g><use fill="#727272" xlink:href="#pil4d"/></g></g></g><g><g><g><use fill="#727272" xlink:href="#pil4e"/></g></g></g></g></g></svg>