<svg xmlns="http://www.w3.org/2000/svg" xmlns:xlink="http://www.w3.org/1999/xlink" width="252" height="270" viewBox="0 0 84 90"><defs><path id="o94fa" d="M399.244 1451.112h-20.817v-1.134-.322-2.516l-.068-.236v-.464l-.134-.368c-1.256-3.276-3.817-5.909-7.094-7.292a10.263 10.263 0 0 1 2.092-2.232 10.269 10.269 0 0 1 4.992-1.286h10.813c5.635.015 10.2 4.494 10.216 10.025zm-23.631-.671v5.826h-31.216v-6.242-.492V1448.294l.058-.227.096-.34.068-.227c1.384-4.118 5.296-6.906 9.714-6.923l.28-.152h10.813c5.131.019 9.459 3.756 10.129 8.749 0 .208 0 .416.058.624v.643zm-33.905-1.23V1451.103h-20.913v-5.816c.016-5.53 4.58-10.01 10.216-10.025h10.803a10.27 10.27 0 0 1 4.992 1.286 10.345 10.345 0 0 1 2.709 2.166c-4.35 1.852-7.336 5.868-7.807 10.497zm47.32-16.692h-10.803a13.097 13.097 0 0 0-6.37 1.646 13.057 13.057 0 0 0-4.193 3.697 13.192 13.192 0 0 0-2.236-.189h-10.813c-.75 0-1.498.063-2.236.19a13.046 13.046 0 0 0-4.192-3.698 13.097 13.097 0 0 0-6.37-1.646H331.01c-7.18.016-12.995 5.723-13.01 12.768v7.197c.004.754.628 1.362 1.397 1.362h22.166v3.783c0 .757.625 1.371 1.397 1.371h34.078c.772 0 1.398-.614 1.398-1.371v-3.783h22.166c.771 0 1.397-.614 1.397-1.372v-7.187c-.016-7.03-5.808-12.732-12.972-12.768z"/><path id="o94fb" d="M358.497 1387.407c0-.857.707-1.551 1.58-1.551.873 0 1.58.694 1.58 1.55 0 .857-.707 1.552-1.58 1.552-.873 0-1.58-.695-1.58-1.551z"/><path id="o94fc" d="M341.39 1425.426c-2.75 2.7-7.211 2.701-9.963.002a6.823 6.823 0 0 1-.002-9.777c2.75-2.7 7.211-2.702 9.963-.002a6.849 6.849 0 0 1 2.065 4.887 6.83 6.83 0 0 1-2.063 4.89zm1.976-11.7a9.897 9.897 0 0 0-6.958-2.836c-5.435-.005-9.844 4.314-9.849 9.647-.005 5.333 4.397 9.66 9.831 9.665 5.435.005 9.844-4.315 9.849-9.648a9.566 9.566 0 0 0-2.873-6.827z"/><path id="o94fd" d="M368.712 1387.407c0-.857.708-1.551 1.58-1.551.874 0 1.581.694 1.581 1.55 0 .857-.707 1.552-1.58 1.552-.873 0-1.58-.695-1.58-1.551z"/><path id="o94fe" d="M374.745 1398.87a23.922 23.922 0 0 1-14.726 4.728 26.63 26.63 0 0 1-3.98-.293 25.157 25.157 0 0 1-3.855-.88 1.41 1.41 0 0 0-1.118.123l-5.503 3.187.8-5.201a1.36 1.36 0 0 0-.568-1.315 16.709 16.709 0 0 1-4.82-5.296 12.805 12.805 0 0 1-1.638-6.242c0-4.35 2.265-8.304 5.927-11.179a23.921 23.921 0 0 1 14.726-4.729 23.921 23.921 0 0 1 14.727 4.73c3.662 2.836 5.927 6.827 5.927 11.178 0 4.35-2.236 8.304-5.899 11.188zm1.735-24.496a26.748 26.748 0 0 0-16.46-5.372 26.748 26.748 0 0 0-16.461 5.372c-4.318 3.386-6.988 8.096-6.988 13.307.006 2.647.692 5.25 1.995 7.566a19.204 19.204 0 0 0 4.906 5.674l-1.108 7.235a1.366 1.366 0 0 0 1.163 1.552 1.41 1.41 0 0 0 .909-.17l7.536-4.313c1.194.348 2.412.617 3.643.804 1.46.22 2.936.331 4.414.33a26.748 26.748 0 0 0 16.46-5.371c4.309-3.396 6.978-8.096 6.978-13.307s-2.67-9.921-6.987-13.307z"/><path id="o94ff" d="M388.614 1425.422c-2.751 2.7-7.212 2.701-9.963.002a6.849 6.849 0 0 1-2.065-4.888 6.83 6.83 0 0 1 2.063-4.89c2.75-2.7 7.21-2.7 9.963-.001a6.823 6.823 0 0 1 .002 9.777zm-4.975-14.542c-5.434-.004-9.844 4.315-9.848 9.648a9.564 9.564 0 0 0 2.873 6.827 9.896 9.896 0 0 0 6.958 2.837c5.434.005 9.843-4.314 9.848-9.647.005-5.333-4.397-9.66-9.83-9.665z"/><path id="o94fg" d="M348.281 1387.407c0-.857.708-1.551 1.58-1.551.873 0 1.581.694 1.581 1.55 0 .857-.708 1.552-1.58 1.552-.873 0-1.581-.695-1.581-1.551z"/><path id="o94fh" d="M360.017 1432.612c-3.89-.002-7.044-3.098-7.043-6.916.001-3.818 3.157-6.912 7.047-6.911 1.869 0 3.66.729 4.981 2.026a6.83 6.83 0 0 1 2.062 4.89c0 3.817-3.156 6.912-7.047 6.91zm6.946-13.764a9.927 9.927 0 0 0-6.944-2.813 9.897 9.897 0 0 0-6.958 2.837 9.52 9.52 0 0 0 .024 13.642c3.846 3.761 10.07 3.75 13.902-.023a9.52 9.52 0 0 0-.024-13.643z"/></defs><g><g transform="translate(-318 -1369)"><g><g><g><use fill="#727272" xlink:href="#o94fa"/></g></g></g><g><g><g><use fill="#ff636d" xlink:href="#o94fb"/></g></g></g><g><g><g><use fill="#727272" xlink:href="#o94fc"/></g></g></g><g><g><g><use fill="#ff636d" xlink:href="#o94fd"/></g></g></g><g><g><g><use fill="#ff636d" xlink:href="#o94fe"/></g></g></g><g><g><g><use fill="#727272" xlink:href="#o94ff"/></g></g></g><g><g><g><use fill="#ff636d" xlink:href="#o94fg"/></g></g></g><g><g><g><use fill="#727272" xlink:href="#o94fh"/></g></g></g></g></g></svg>