<svg xmlns="http://www.w3.org/2000/svg" xmlns:xlink="http://www.w3.org/1999/xlink" width="90" height="80" viewBox="0 0 90 80"><defs><path id="1uu8a" d="M806.819 2607.59h-20.566a2.044 2.044 0 0 0-2.036 2.051c0 1.133.912 2.051 2.036 2.051h20.566a2.044 2.044 0 0 0 2.036-2.051 2.044 2.044 0 0 0-2.036-2.051z"/><path id="1uu8b" d="M837.566 2607.59H817a2.044 2.044 0 0 0-2.036 2.051c0 1.133.911 2.051 2.036 2.051h20.566a2.044 2.044 0 0 0 2.036-2.051 2.044 2.044 0 0 0-2.036-2.051z"/><path id="1uu8c" d="M837.566 2556.308h-51.313a2.044 2.044 0 0 0-2.036 2.051c0 1.133.912 2.051 2.036 2.051h51.313a2.044 2.044 0 0 0 2.036-2.051 2.044 2.044 0 0 0-2.036-2.051z"/><path id="1uu8d" d="M837.566 2566.564H817a2.044 2.044 0 0 0-2.036 2.051c0 1.133.911 2.052 2.036 2.052h20.566a2.044 2.044 0 0 0 2.036-2.052 2.044 2.044 0 0 0-2.036-2.05z"/><path id="1uu8e" d="M837.566 2576.82H817a2.044 2.044 0 0 0-2.036 2.052c0 1.133.911 2.051 2.036 2.051h20.566a2.044 2.044 0 0 0 2.036-2.051 2.044 2.044 0 0 0-2.036-2.051z"/><path id="1uu8f" d="M837.566 2587.077H817a2.044 2.044 0 0 0-2.036 2.051c0 1.133.911 2.051 2.036 2.051h20.566a2.044 2.044 0 0 0 2.036-2.05 2.044 2.044 0 0 0-2.036-2.052z"/><path id="1uu8g" d="M837.566 2597.333H817a2.044 2.044 0 0 0-2.036 2.052c0 1.133.911 2.05 2.036 2.05h20.566a2.044 2.044 0 0 0 2.036-2.05 2.044 2.044 0 0 0-2.036-2.052z"/><path id="1uu8h" d="M806.819 2597.333h-20.566a2.044 2.044 0 0 0-2.036 2.052c0 1.133.912 2.05 2.036 2.05h20.566a2.044 2.044 0 0 0 2.036-2.05 2.044 2.044 0 0 0-2.036-2.052z"/><path id="1uu8i" d="M804.783 2587.282H788.29v-16.615h16.493zm2.036-20.718h-20.566a2.044 2.044 0 0 0-2.036 2.051v20.718c0 1.133.912 2.052 2.036 2.052h20.566a2.044 2.044 0 0 0 2.036-2.052v-20.718a2.044 2.044 0 0 0-2.036-2.05z"/><path id="1uu8j" d="M857.928 2613.744c0 3.393-2.74 6.153-6.109 6.153h-69.638c-3.368 0-6.109-2.76-6.109-6.153v-65.641h71.675v62.564c0 2.827 2.283 5.128 5.09 5.128a2.044 2.044 0 0 0 2.036-2.051 2.044 2.044 0 0 0-2.036-2.052c-.561 0-1.018-.46-1.018-1.025v-52.308h6.109zm0-59.488h-6.109v-6.153c0-2.263-1.827-4.103-4.072-4.103h-71.675c-2.245 0-4.072 1.84-4.072 4.103v65.64c0 5.656 4.567 10.257 10.181 10.257h69.638c5.614 0 10.181-4.601 10.181-10.256v-55.385c0-2.262-1.827-4.103-4.072-4.103z"/></defs><g><g transform="translate(-772 -2544)"><g><use fill="#ff636d" xlink:href="#1uu8a"/></g><g><use fill="#727272" xlink:href="#1uu8b"/></g><g><use fill="#727272" xlink:href="#1uu8c"/></g><g><use fill="#727272" xlink:href="#1uu8d"/></g><g><use fill="#727272" xlink:href="#1uu8e"/></g><g><use fill="#727272" xlink:href="#1uu8f"/></g><g><use fill="#727272" xlink:href="#1uu8g"/></g><g><use fill="#ff636d" xlink:href="#1uu8h"/></g><g><use fill="#ff636d" xlink:href="#1uu8i"/></g><g><use fill="#727272" xlink:href="#1uu8j"/></g></g></g></svg>