<svg xmlns="http://www.w3.org/2000/svg" xmlns:xlink="http://www.w3.org/1999/xlink" width="270" height="270" viewBox="0 0 90 90"><defs><path id="gp8ta" d="M859.098 1369.711H815.56v-1.453a4.355 4.355 0 0 1 4.354-4.355h34.816a4.353 4.353 0 0 1 4.37 4.355zM854.73 1361h-34.825a7.257 7.257 0 0 0-7.256 7.258v13.064h2.911v-8.708h43.54v60.967H862v-65.323a7.26 7.26 0 0 0-7.27-7.258z"/><path id="gp8tb" d="M815.56 1439.389h43.538v4.356a4.355 4.355 0 0 1-4.354 4.355h-34.84a4.355 4.355 0 0 1-4.354-4.355zm4.344 11.611h34.825a7.257 7.257 0 0 0 7.256-7.258v-7.259H812.66v7.259a7.257 7.257 0 0 0 7.243 7.258z"/><path id="gp8tc" d="M828.612 1445.194v-2.902h17.412v2.902z"/><path id="gp8td" d="M847.474 1424.872h-72.552v-37.741h72.552zm2.904-40.647H772.02v43.556h78.358z"/><path id="gp8te" d="M811.297 1392.936c7.212 0 13.058 5.849 13.058 13.064s-5.846 13.064-13.058 13.064c-7.213 0-13.06-5.85-13.06-13.064.01-7.212 5.85-13.055 13.06-13.064zm0 29.034c8.814 0 15.96-7.149 15.96-15.967 0-8.818-7.146-15.967-15.96-15.967-8.815 0-15.96 7.149-15.96 15.967.011 8.813 7.15 15.955 15.96 15.967z"/><path id="gp8tf" d="M780.725 1392.936h7.255v-2.903h-10.157v10.161h2.902z"/><path id="gp8tg" d="M787.98 1419.064h-7.255v-7.256h-2.902v10.159h10.157z"/><path id="gp8th" d="M841.67 1400.194h2.902v-10.16h-10.157v2.902h7.255z"/><path id="gp8ti" d="M844.572 1411.808h-2.902v7.256h-7.255v2.903h10.157z"/><path id="gp8tj" d="M805.478 1375.517a1.453 1.453 0 1 1 0 2.905 1.453 1.453 0 0 1 0-2.905zm-.085 5.805a4.355 4.355 0 1 0 1.003-8.599c-2.16-.5-4.351.702-5.09 2.794H787.98v2.902h13.327a4.348 4.348 0 0 0 4.086 2.903z"/><path id="gp8tk" d="M782.177 1378.42v-2.903h2.902v2.902z"/><path id="gp8tl" d="M776.46 1436.483a1.453 1.453 0 1 1 0-2.905 1.453 1.453 0 0 1 0 2.905zm-.086-5.805a4.355 4.355 0 1 0-1.003 8.599c2.16.5 4.35-.702 5.089-2.794h13.326v-2.903H780.46a4.348 4.348 0 0 0-4.086-2.902z"/><path id="gp8tm" d="M796.688 1436.483v-2.902h2.902v2.902z"/><path id="gp8tn" d="M812.648 1433.58v-2.902h2.902v2.902z"/><path id="gp8to" d="M810.404 1399.81h4.083a3.044 3.044 0 0 1 2.18.793 2.992 2.992 0 0 1 0 4.136 3.044 3.044 0 0 1-2.18.792h-4.083zm-5.833 12.425h2.871v2.437a.399.399 0 0 0 .42.42h2.131a.405.405 0 0 0 .29-.116.384.384 0 0 0 .121-.304v-2.437h6.434a.396.396 0 0 0 .411-.411v-1.648a.396.396 0 0 0-.411-.411h-6.455v-1.484h4.351c1.707 0 3.1-.52 4.177-1.562a5.831 5.831 0 0 0 0-8.066c-1.08-1.04-2.472-1.56-4.177-1.562h-6.884a.393.393 0 0 0-.408.408v8.026h-2.871a.39.39 0 0 0-.305.122.402.402 0 0 0-.115.286v1.9a.393.393 0 0 0 .41.409h2.872v1.523h-2.871a.396.396 0 0 0-.411.41v1.649a.396.396 0 0 0 .41.41z"/></defs><g><g transform="translate(-772 -1361)"><g><g><use fill="#727272" xlink:href="#gp8ta"/></g><g><use fill="#727272" xlink:href="#gp8tb"/></g><g><use fill="#727272" xlink:href="#gp8tc"/></g><g><use fill="#ff636d" xlink:href="#gp8td"/></g><g><use fill="#ff636d" xlink:href="#gp8te"/></g><g><use fill="#ff636d" xlink:href="#gp8tf"/></g><g><use fill="#ff636d" xlink:href="#gp8tg"/></g><g><use fill="#ff636d" xlink:href="#gp8th"/></g><g><use fill="#ff636d" xlink:href="#gp8ti"/></g><g><use fill="#727272" xlink:href="#gp8tj"/></g><g><use fill="#727272" xlink:href="#gp8tk"/></g><g><use fill="#727272" xlink:href="#gp8tl"/></g><g><use fill="#727272" xlink:href="#gp8tm"/></g><g><use fill="#727272" xlink:href="#gp8tn"/></g><g><use fill="#ff636d" xlink:href="#gp8to"/></g></g></g></g></svg>