<svg xmlns="http://www.w3.org/2000/svg" xmlns:xlink="http://www.w3.org/1999/xlink" width="270" height="258" viewBox="0 0 90 86"><defs><path id="y2gua" d="M364.695 1845.552zm0-9.207c6.473-.441 11.174-3.397 11.174-7.287v-2.972c6.558 1.359 27.254 6.692 28.65 19.466h-39.824zm-11.174-7.27v-5.86a20.643 20.643 0 0 0 9.045 1.903h.851c3.12.057 6.214-.593 9.045-1.903v5.86c0 1.614-3.696 3.941-9.47 3.941-5.775 0-9.471-2.327-9.471-3.94zm7.767 16.426h-39.825c1.346-12.757 22.144-18.09 28.651-19.466v3.04c0 3.856 4.701 6.795 11.174 7.287zm6.814-32.274c0 .835-.68 1.512-1.516 1.512a1.514 1.514 0 0 1-1.516-1.512c0-.834.678-1.511 1.516-1.511.837 0 1.516.677 1.516 1.511zm-22.025-9.75zm.068.017a1.695 1.695 0 0 0-.426-1.138c-2.333-2.666-3.406-5.095-3.117-7.1a4.498 4.498 0 0 1 1.55-2.87c2.249 0 10.22-.425 15.33-4.824a38.493 38.493 0 0 0 18.908 5.095c1.141 0 2.3 0 3.509-.186a4.48 4.48 0 0 1 1.533 2.785c.29 1.97-.784 4.434-3.117 7.1-.278.314-.43.72-.426 1.138v.884l-9.914 5.3a4.915 4.915 0 0 0-6.935.188 4.882 4.882 0 0 0 .19 6.916 4.915 4.915 0 0 0 6.935-.189 4.884 4.884 0 0 0 1.343-3.366 4.58 4.58 0 0 0 0-.458l7.819-4.179a18.667 18.667 0 0 1-4.565 8.969 15.201 15.201 0 0 1-11.294 4.212h-.851a15.236 15.236 0 0 1-11.277-4.195c-5.382-5.35-5.263-14.013-5.263-14.099zm34.527-14.268a35.167 35.167 0 0 1-20.355-5.096 1.707 1.707 0 0 0-2.214.221c-3.407 3.652-9.624 4.502-12.622 4.688.92-12.009 8.21-14.625 14.342-14.625a16.51 16.51 0 0 1 2.913.238c.225.046.456.046.681 0a16.592 16.592 0 0 1 2.913-.238c6.081 0 13.406 2.684 14.257 14.795zm-38.751 13.929zm-3.611-2.633l.085.017c-1.704-2.48-1.857-6.234-.34-11.194l1.243-.832c.523-.348.81-.956.75-1.58a20.04 20.04 0 0 1 4.632-13.98c3.85-4.348 10.033-6.522 18.311-6.556 8.279-.034 14.462 2.208 18.38 6.557a20.04 20.04 0 0 1 4.633 13.98 1.697 1.697 0 0 0 .75 1.579l1.243.832c1.516 4.943 1.414 8.714-.34 11.194a7.427 7.427 0 0 1-3.629 2.633 11.292 11.292 0 0 0 2.777-8.493 7.945 7.945 0 0 0-2.743-4.756c-.732-16.986-12.673-18.889-17.817-18.889a21.532 21.532 0 0 0-3.254.238 21.5 21.5 0 0 0-3.253-.238c-5.11 0-17.034 1.869-17.817 18.889a7.945 7.945 0 0 0-2.777 4.739 11.275 11.275 0 0 0 2.777 8.493 7.392 7.392 0 0 1-3.611-2.633zm37.559 22.099v-1.563c.443-.357.869-.747 1.277-1.155a23.19 23.19 0 0 0 5.894-12.943 11.453 11.453 0 0 0 7.393-4.383c2.47-3.482 2.691-8.493.63-14.778a1.7 1.7 0 0 0-.681-.883l-.937-.628a22.993 22.993 0 0 0-5.52-15.509c-4.581-5.146-11.616-7.745-20.934-7.78-9.3 0-16.352 2.634-20.934 7.712a22.993 22.993 0 0 0-5.519 15.509l-.937.628a1.7 1.7 0 0 0-.681.883c-2.061 6.32-1.84 11.296.63 14.778a11.486 11.486 0 0 0 7.393 4.434 23.207 23.207 0 0 0 5.91 12.96 16.6 16.6 0 0 0 1.278 1.155v1.563c-6.524 1.257-32.568 7.355-32.125 24.68 0 .938.762 1.699 1.703 1.699h86.582c.94 0 1.703-.76 1.703-1.699.443-17.325-25.601-23.423-32.125-24.68z"/><path id="y2gub" d="M368.102 1813.227c0 .835-.68 1.512-1.516 1.512a1.514 1.514 0 0 1-1.516-1.512c0-.834.678-1.511 1.516-1.511.837 0 1.516.677 1.516 1.511zm11.787-8.85l-9.914 5.3a4.915 4.915 0 0 0-6.935.19 4.882 4.882 0 0 0 .19 6.915 4.915 4.915 0 0 0 6.935-.189 4.884 4.884 0 0 0 1.343-3.366 4.58 4.58 0 0 0 0-.458l7.819-4.179s.562-4.756.562-4.212z"/></defs><g><g transform="translate(-318 -1763)"><g><g><use fill="#727272" xlink:href="#y2gua"/></g></g></g><g transform="translate(-318 -1763)"><g><g><use fill="#ff636d" xlink:href="#y2gub"/></g></g></g></g></svg>