<svg xmlns="http://www.w3.org/2000/svg" xmlns:xlink="http://www.w3.org/1999/xlink" width="270" height="261" viewBox="0 0 90 87"><defs><path id="lmzba" d="M405 2590.499a10.5 10.5 0 0 1-9 10.38v-23.88h5.84a10.445 10.445 0 0 1 3.16 7.5zm-24-16.5a1.5 1.5 0 0 0-1.2.6l-3.3 4.399-3.3-4.4a1.5 1.5 0 0 0-1.2-.6h-7.5v-21h36v21zm12 28.5a3 3 0 1 1-6 0v-25.5h6zm-18 21h-3.213c.284-.98.284-2.02 0-3H375zm-9 1.5h-6a3 3 0 1 1 0-6h6a3 3 0 1 1 0 6zm-36-50.894v26.787a10.517 10.517 0 0 1-9-10.393v-6a10.517 10.517 0 0 1 9-10.394zm3-1.606a3 3 0 1 1 6 0v30a3 3 0 1 1-6 0zm70.5 1.966v-22.966a1.5 1.5 0 0 0-1.5-1.5h-13.575c-17.377-14.05-42.853-11.352-56.902 6.025a40.46 40.46 0 0 0-8.273 17.816 13.473 13.473 0 0 0-5.25 10.658v6a13.518 13.518 0 0 0 12.192 13.434A5.99 5.99 0 0 0 342 2602.5v-30a5.99 5.99 0 0 0-11.808-1.434 13.416 13.416 0 0 0-3.44.813c5.283-19.994 25.774-31.92 45.768-26.638a37.448 37.448 0 0 1 10.766 4.759H363a1.5 1.5 0 0 0-1.5 1.5v24a1.5 1.5 0 0 0 1.5 1.5h8.25l4.05 5.4a1.5 1.5 0 0 0 2.4 0l4.05-5.4H384v25.5a5.99 5.99 0 0 0 11.808 1.433 13.44 13.44 0 0 0 3.192-.721v3.787c-.009 7.452-6.048 13.491-13.5 13.5H378v-1.5a1.5 1.5 0 0 0-1.5-1.5h-6.573a5.949 5.949 0 0 0-3.927-1.5h-6a6 6 0 0 0 0 12h6a5.949 5.949 0 0 0 3.927-1.5h6.573a1.5 1.5 0 0 0 1.5-1.5v-1.5h7.5c9.108-.01 16.49-7.391 16.5-16.5v-5.283a13.5 13.5 0 0 0 6-11.217v-6a13.417 13.417 0 0 0-4.5-10.033z"/><path id="lmzbb" d="M371.985 2558.999v-3h2.878v3z"/><path id="lmzbc" d="M378 2558.999v-3h19.5v3z"/><path id="lmzbd" d="M367.5 2564.999v-3h30v3z"/><path id="lmzbe" d="M367.5 2570.999v-3h30v3z"/><path id="lmzbf" d="M381 2573.999a1.5 1.5 0 0 0-1.2.6l-3.3 4.399-3.3-4.4a1.5 1.5 0 0 0-1.2-.6h-7.5v-21h36v21zm22.476 3l.024-25.5a1.5 1.5 0 0 0-1.5-1.5h-39a1.5 1.5 0 0 0-1.5 1.5v24a1.5 1.5 0 0 0 1.5 1.5h8.25l4.05 5.4a1.5 1.5 0 0 0 2.4 0l4.05-5.4s11.418-.007 11.507 0c.296-.073 10.635.369 10.22 0z"/></defs><g><g transform="translate(-318 -2541)"><g><g><g><g><use fill="#727272" xlink:href="#lmzba"/></g></g></g><g><g><g><use fill="#ff636d" xlink:href="#lmzbb"/></g></g></g><g><g><g><use fill="#ff636d" xlink:href="#lmzbc"/></g></g></g><g><g><g><use fill="#ff636d" xlink:href="#lmzbd"/></g></g></g><g><g><g><use fill="#ff636d" xlink:href="#lmzbe"/></g></g></g></g><g><g><g><g><use fill="#ff636d" xlink:href="#lmzbf"/></g></g></g><g><g><g><use fill="#ff636d" xlink:href="#lmzbb"/></g></g></g><g><g><g><use fill="#ff636d" xlink:href="#lmzbc"/></g></g></g><g><g><g><use fill="#ff636d" xlink:href="#lmzbd"/></g></g></g><g><g><g><use fill="#ff636d" xlink:href="#lmzbe"/></g></g></g></g></g></g></svg>