<svg xmlns="http://www.w3.org/2000/svg" xmlns:xlink="http://www.w3.org/1999/xlink" width="270" height="216" viewBox="0 0 90 72"><defs><path id="zfl8a" d="M406.498 2226.984h-3c-.828 0-1.5.675-1.5 1.508s.672 1.508 1.5 1.508h3c.829 0 1.5-.675 1.5-1.508s-.671-1.508-1.5-1.508z"/><path id="zfl8b" d="M329.998 2175.718h21l.003 22.618h-4.502v-3.016c-.003-2.497-2.016-4.521-4.5-4.524h-3c-2.485.003-4.498 2.027-4.5 4.524v3.016h-4.5zm13.5 22.618h-6v-3.016a1.506 1.506 0 0 1 1.5-1.508h3a1.506 1.506 0 0 1 1.5 1.508zm-13.5 3.015h21a3.01 3.01 0 0 0 3-3.016v-22.617a3.011 3.011 0 0 0-3-3.016h-21a3.011 3.011 0 0 0-3 3.016v22.617a3.01 3.01 0 0 0 3 3.016z"/><path id="zfl8c" d="M331.498 2220.953v-13.57h18l.003 13.57h-18.003zm18-16.586h-18a3.01 3.01 0 0 0-3 3.016v13.57a3.01 3.01 0 0 0 3 3.016h18a3.01 3.01 0 0 0 3-3.016v-13.57a3.01 3.01 0 0 0-3-3.016z"/><path id="zfl8d" d="M344.998 2210.398h-9c-.828 0-1.5.675-1.5 1.508s.672 1.508 1.5 1.508h9c.829 0 1.5-.675 1.5-1.508s-.671-1.508-1.5-1.508z"/><path id="zfl8e" d="M344.998 2214.922h-9c-.828 0-1.5.675-1.5 1.507 0 .833.672 1.508 1.5 1.508h9c.829 0 1.5-.675 1.5-1.508 0-.832-.671-1.507-1.5-1.507z"/><path id="zfl8f" d="M404.118 2166.147l-2.12 2.13v-7.272a2.98 2.98 0 0 1 2.12.882 3.014 3.014 0 0 1 0 4.26zm-5.12 5.147l-6 6.031v-8.522l6-6.031zm-9 9.047l-6 6.031v-8.522l6-6.031zm-9 9.047l-6 6.031v-8.522l6-6.031zm-9 9.047l-3.139 3.155a6.016 6.016 0 0 0-4.05-4.45l7.19-7.227v8.522zm-12 28.55v-24.126a3.008 3.008 0 0 1 3-3.016c1.657 0 3 1.35 3 3.016v24.125zm-1.5-60.314h-36a1.506 1.506 0 0 1-1.5-1.508v-3.016h39v3.016a1.506 1.506 0 0 1-1.5 1.508zm-34.5 60.313v-57.298h33v57.298zm84-62.967a6.024 6.024 0 0 0-2.553-4.93 5.956 5.956 0 0 0-5.483-.721c-.02.007-.04.01-.059.017a5.933 5.933 0 0 0-2.145 1.371l-7.32 7.358-9 9.047v.001l-9 9.046v.001l-12.342 12.407c-.033.018-.066.034-.097.053v-28.258a4.515 4.515 0 0 0 3-4.246v-4.524c0-.832-.672-1.507-1.5-1.507h-42c-.83 0-1.5.675-1.5 1.507v4.524a4.514 4.514 0 0 0 3 4.245v57.576h-1.5c-.83 0-1.5.675-1.5 1.508s.67 1.508 1.5 1.508h78c.828 0 1.5-.675 1.5-1.508s-.672-1.508-1.5-1.508h-28.5v-21.27l5.56-5.588v-.001l9-9.046v-.001l9-9.046v-.001l9-9.047 4.68-4.705a6.084 6.084 0 0 0 1.76-4.262z"/><path id="zfl8g" d="M364.378 2203.793a1.154 1.154 0 0 0-.135-.27l-.18-.227a1.494 1.494 0 0 0-1.635-.317c-.184.073-.352.18-.495.317l-.18.226a1.165 1.165 0 0 0-.135.271.955.955 0 0 0-.09.272 2 2 0 0 0-.03.302c.003.197.043.391.12.573.073.184.18.353.315.497.146.133.313.24.495.317.18.077.374.118.57.12.1-.002.201-.012.3-.03a.972.972 0 0 0 .27-.09c.096-.033.187-.08.27-.136l.225-.18a1.57 1.57 0 0 0 .315-.498c.077-.182.118-.376.12-.573a2.064 2.064 0 0 0-.03-.302.982.982 0 0 0-.09-.272z"/></defs><g><g transform="translate(-318 -2158)"><g><g><g><use fill="#727272" xlink:href="#zfl8a"/></g><g><use fill="#727272" xlink:href="#zfl8b"/></g><g><use fill="#ff636d" xlink:href="#zfl8c"/></g><g><use fill="#ff636d" xlink:href="#zfl8d"/></g><g><use fill="#ff636d" xlink:href="#zfl8e"/></g><g><use fill="#727272" xlink:href="#zfl8f"/></g><g><use fill="#727272" xlink:href="#zfl8g"/></g></g></g></g></g></svg>