<svg xmlns="http://www.w3.org/2000/svg" xmlns:xlink="http://www.w3.org/1999/xlink" width="90" height="90" viewBox="0 0 90 90"><defs><path id="8nxga" d="M772 1849v-2.903h90V1849z"/><path id="8nxgb" d="M793.774 1782.226a1.453 1.453 0 0 1-1.451-1.452c0-.8.65-1.451 1.451-1.451s1.452.651 1.452 1.451-.65 1.452-1.452 1.452zm0-5.807a4.36 4.36 0 0 0-4.355 4.355c0 .264.034.521.079.772l-8.058 4.605 1.44 2.52 8.07-4.61a4.316 4.316 0 0 0 2.824 1.068 4.36 4.36 0 0 0 4.355-4.355 4.36 4.36 0 0 0-4.355-4.355z"/><path id="8nxgc" d="M840.226 1799.645c-10.405 0-18.871-8.466-18.871-18.87 0-10.406 8.466-18.872 18.87-18.872 10.406 0 18.872 8.466 18.872 18.871s-8.466 18.871-18.871 18.871zm4.355 5.807h-8.71v-3.342a21.861 21.861 0 0 0 8.71 0zm0 5.806h-8.71v-2.903h8.71zm-49.354-11.684zm0-2.832h-2.903v2.83a18.7 18.7 0 0 1-6.686-1.798l1.412-2.446-2.514-1.452-1.417 2.455a18.97 18.97 0 0 1-4.902-4.898l2.455-1.418-1.452-2.514-2.446 1.412a18.686 18.686 0 0 1-1.797-6.687h2.83v-2.903h-2.83c.183-2.381.81-4.634 1.797-6.688l2.446 1.412 1.452-2.514-2.455-1.418a19.01 19.01 0 0 1 4.9-4.9l1.416 2.455 2.514-1.451-1.412-2.446a18.714 18.714 0 0 1 6.688-1.796v2.83h2.903v-2.83a18.7 18.7 0 0 1 6.686 1.797l-1.413 2.446 2.515 1.452 1.416-2.455a19.01 19.01 0 0 1 4.9 4.9l-2.455 1.418 1.452 2.514 2.446-1.413a18.678 18.678 0 0 1 1.797 6.688h-2.828v2.903h2.83a18.715 18.715 0 0 1-1.798 6.688l-2.446-1.413-1.452 2.515 2.455 1.418a19.01 19.01 0 0 1-4.9 4.899l-1.416-2.455-2.514 1.452 1.412 2.446a18.678 18.678 0 0 1-6.686 1.797zm2.902 8.71h-8.71v-3.342a21.861 21.861 0 0 0 8.71 0zm0 5.806h-8.71v-2.903h8.71zm49.355 11.613h2.903v-11.613h-2.903v-9.98c8.444-2.999 14.516-11.045 14.516-20.504 0-12.006-9.768-21.774-21.774-21.774s-21.774 9.768-21.774 21.774c0 9.459 6.072 17.505 14.516 20.504v9.98h-2.903v11.613h2.903v11.613h-31.936v-11.613h2.903v-11.613h-2.903v-9.98c8.444-2.999 14.516-11.045 14.516-20.504 0-12.006-9.768-21.774-21.774-21.774S772 1768.768 772 1780.774c0 9.459 6.072 17.505 14.516 20.504v9.98h-2.903v11.613h2.903v11.613H772v2.903h17.42v-14.516h5.806v-2.903h-8.71v-5.807h14.516v5.807h-2.903v17.42h37.742v-14.517h5.806v-2.903h-8.71v-5.807h14.517v5.807h-2.903v17.42H862v-2.904h-14.516z"/><path id="8nxgd" d="M853.29 1785.129h-26.129v-8.71h26.13zm2.904-11.613h-31.936v14.516h31.936z"/><path id="8nxge" d="M832.968 1793.839v-2.904h14.516v2.904z"/></defs><g><g transform="translate(-772 -1759)"><g><g><g><use fill="#727272" xlink:href="#8nxga"/></g><g><use fill="#ff636d" xlink:href="#8nxgb"/></g><g><use fill="#727272" xlink:href="#8nxgc"/></g><g><use fill="#ff636d" xlink:href="#8nxgd"/></g><g><use fill="#ff636d" xlink:href="#8nxge"/></g></g></g></g></g></svg>