<svg xmlns="http://www.w3.org/2000/svg" xmlns:xlink="http://www.w3.org/1999/xlink" width="270" height="243" viewBox="0 0 90 81"><defs><path id="qnfka" d="M1291.099 2225.071v-2.507h21.951v.403c0 1.16-.943 2.104-2.102 2.104zm-19.582 6.723a.778.778 0 0 1-.777-.777v-1.939h17.409v1.939a.778.778 0 0 1-.777.777zm-16.639-17.951l2.392-2.574h10.521v2.574zm-25.678-7.65h38.591v2.126h-35.44a3.406 3.406 0 0 1-3.15-2.126zm3.151-49.243h73.718c1.347 0 2.51.789 3.061 1.927h-79.84a3.403 3.403 0 0 1 3.061-1.927zm38.39 51.187h17.408v17.992h-17.409zm38.73-26.129h-28.236a5.06 5.06 0 0 0-5.054 5.054v12.46h-4.664a3.73 3.73 0 0 0-3.726 3.722h-38.842v-41.418h80.522zm-38.73 23.179v-1.938c0-.429.348-.777.777-.777h15.855c.428 0 .777.348.777.777v1.938zm16.631-5.665h-8.24v-9.108h33.918v29.2H1291.1v-16.366a3.73 3.73 0 0 0-3.727-3.726zm25.678-12.46v.403h-33.919v-.403c0-1.16.944-2.104 2.104-2.104h29.713c1.16 0 2.102.944 2.102 2.104zm-.629-26.71a6.359 6.359 0 0 0-6.351-6.352h-73.718a6.359 6.359 0 0 0-6.352 6.352v44.565a6.359 6.359 0 0 0 6.352 6.352h20.892l-2.392 2.574h-3.583a1.475 1.475 0 0 0 0 2.95h20.522v14.223a3.73 3.73 0 0 0 3.727 3.727h15.854a3.73 3.73 0 0 0 3.727-3.727v-2.995h19.85a5.058 5.058 0 0 0 5.051-5.054v-35.905a5.062 5.062 0 0 0-3.579-4.834z"/><path id="qnfkb" d="M1271.517 2231.794a.778.778 0 0 1-.777-.777v-1.939h17.409v1.939a.778.778 0 0 1-.777.777zm-.777-23.657h17.409v17.992h-17.409zm11.213-8.615c0-.017.04-.017.112 0h-2.934l11.943 3.714a.822.822 0 0 1 .016.008h-2.94a.81.81 0 0 1 0 .005v1.938h-17.41v-1.938a.81.81 0 0 1 0-.005h-2.949a3.73 3.73 0 0 1 3.726-3.722zm9.146 3.727v-.005h-.009a.088.088 0 0 1 .009.005zm-3.726-.777h-15.855a.778.778 0 0 0-.777.772h-2.95v27.772a3.73 3.73 0 0 0 3.727 3.727h15.854a3.73 3.73 0 0 0 3.727-3.727v-27.768l-2.95-.004a.778.778 0 0 0-.776-.772zm0-2.95a3.727 3.727 0 0 1 3.726 3.722l-.025-.008c-.494-.235-7.999-3.485-9.009-3.714h5.307z"/></defs><g><g transform="translate(-1226 -2154)"><use fill="#727272" xlink:href="#qnfka"/></g><g transform="translate(-1226 -2154)"><use fill="#ff636d" xlink:href="#qnfkb"/></g></g></svg>