<svg xmlns="http://www.w3.org/2000/svg" xmlns:xlink="http://www.w3.org/1999/xlink" width="234" height="270" viewBox="0 0 78 90"><defs><path id="lf2va" d="M1253 1765.001c0-.833-.168-1.002-1.001-1.002H1246c-.602 0-2.002.098-2.002 1.002 0 .821 1.179 1.998 2.002 1.998H1252c.903 0 1.001-1.397 1.001-1.998zm6 0c0-.833-.168-1.002-1-1.002h-2c-.832 0-1 .169-1 1.002 0 .6.098 1.998 1 1.998h2c.902 0 1-1.397 1-1.998zm-6 73.999c0 1.654-1.346 3-3 3s-3-1.346-3-3 1.346-3 3-3 3 1.346 3 3zm3 0a6.006 6.006 0 0 0-6-5.999A6.007 6.007 0 0 0 1244 1839c0 3.309 2.692 6 6.001 6a6.006 6.006 0 0 0 6-6zm13.999-76.999c1.982 0 4.001 2.019 4.001 3.999v2h-45v-2c0-1.98 2.019-3.999 3.999-3.999zM1274 1831v11c0 1.981-2.019 4.001-4.001 4.001h-37c-1.98 0-3.999-2.02-3.999-4.001v-11zm-4.001 18.001c1.736 0 3.51-.777 4.867-2.134 1.356-1.356 2.134-3.13 2.134-4.867v-33.001h-3v19.002h-45V1771h45v5.999l3-.001V1766c0-1.736-.778-3.51-2.134-4.867-1.357-1.357-3.13-2.134-4.867-2.134h-37c-1.736 0-3.51.777-4.866 2.134-1.357 1.356-2.134 3.13-2.134 4.867v76c0 1.737.777 3.512 2.134 4.867 1.356 1.357 3.13 2.134 4.866 2.134h37z"/><path id="lf2vb" d="M1301 1806h-27v3h-7l-14 10v-10h-6v-32h27v3h27zm-51-26v26h6v7l10-7h8v3h30v-32h-30v3z"/><path id="lf2vc" d="M1258 1791h15c.828 0 1-1.17 1-2 0-.83-.172-1-1-1h-15c-.828 0-2 .17-2 1s1.172 2 2 2z"/><path id="lf2vd" d="M1256 1797c0 .83 1.172 1 2 1h36c.828 0 1-.17 1-1s-.172-2-1-2h-36c-.828 0-2 1.17-2 2z"/></defs><g><g transform="translate(-1226 -1759)"><g><g><use fill="#727272" xlink:href="#lf2va"/></g><g><g><use fill="#ff636d" xlink:href="#lf2vb"/></g><g><use fill="#ff636d" xlink:href="#lf2vc"/></g><g><use fill="#ff636d" xlink:href="#lf2vd"/></g></g></g></g></g></svg>